<svg xmlns="http://www.w3.org/2000/svg" viewBox="0 0 800 450" fill="none">
  <defs>
    <linearGradient id="bg" x1="0" y1="0" x2="800" y2="450" gradientUnits="userSpaceOnUse">
      <stop stop-color="#312e81"/>
      <stop offset="1" stop-color="#1e1b4b"/>
    </linearGradient>
    <linearGradient id="car" x1="150" y1="180" x2="640" y2="330" gradientUnits="userSpaceOnUse">
      <stop stop-color="#71717a"/>
      <stop offset="1" stop-color="#3f3f46"/>
    </linearGradient>
  </defs>
  <rect width="800" height="450" fill="url(#bg)"/>
  <ellipse cx="400" cy="392" rx="280" ry="22" fill="#000" opacity="0.22"/>
  <path d="M130 290 Q170 210 255 190 L325 175 Q410 162 495 170 L575 185 Q655 205 690 252 L710 290 L680 320 L595 332 L535 318 Q450 305 400 307 Q350 305 265 318 L180 330 Q120 322 130 290Z" fill="url(#car)"/>
  <path d="M255 190 L330 175 L430 168 L525 175 L595 192 Q625 212 635 250 L255 252Z" fill="#52525b" opacity="0.5"/>
  <circle cx="215" cy="318" r="40" fill="#18181b"/><circle cx="215" cy="318" r="23" fill="#27272a"/>
  <circle cx="585" cy="318" r="40" fill="#18181b"/><circle cx="585" cy="318" r="23" fill="#27272a"/>
</svg>
