<svg xmlns="http://www.w3.org/2000/svg" viewBox="0 0 800 450" fill="none">
  <defs>
    <linearGradient id="bg" x1="0" y1="0" x2="800" y2="450" gradientUnits="userSpaceOnUse">
      <stop stop-color="#1c1917"/>
      <stop offset="1" stop-color="#0c0a09"/>
    </linearGradient>
    <linearGradient id="car" x1="170" y1="180" x2="630" y2="330" gradientUnits="userSpaceOnUse">
      <stop stop-color="#71717a"/>
      <stop offset="1" stop-color="#3f3f46"/>
    </linearGradient>
    <linearGradient id="ev" x1="0" y1="0" x2="1" y2="0">
      <stop stop-color="#22d3ee"/>
      <stop offset="1" stop-color="#14b8a6"/>
    </linearGradient>
  </defs>
  <rect width="800" height="450" fill="url(#bg)"/>
  <ellipse cx="400" cy="390" rx="290" ry="24" fill="#000" opacity="0.25"/>
  <path d="M130 288 Q170 215 260 195 L330 180 Q410 168 490 175 L580 188 Q660 205 695 260 L715 295 L685 320 L600 332 L540 318 Q450 305 400 307 Q350 305 260 318 L175 330 Q125 322 130 288Z" fill="url(#car)"/>
  <path d="M260 195 L340 180 L440 173 L530 180 L600 198 Q630 218 640 252 L260 254Z" fill="#52525b" opacity="0.55"/>
  <rect x="620" y="230" width="60" height="28" rx="6" fill="url(#ev)" opacity="0.85"/>
  <circle cx="225" cy="318" r="42" fill="#09090b"/><circle cx="225" cy="318" r="24" fill="#27272a"/>
  <circle cx="575" cy="318" r="42" fill="#09090b"/><circle cx="575" cy="318" r="24" fill="#27272a"/>
  <rect x="650" y="258" width="52" height="13" rx="4" fill="#2dd4bf"/>
  <rect x="115" y="260" width="26" height="11" rx="3" fill="#f97316"/>
</svg>
